<svg xmlns="http://www.w3.org/2000/svg" version="1.1" xmlns:xlink="http://www.w3.org/1999/xlink" xmlns:svgjs="http://svgjs.dev/svgjs" width="2000" height="348" viewBox="0 0 2000 348"><g transform="matrix(1,0,0,1,2.1445699005860206,-1.1671605112497616)"><svg viewBox="0 0 396 69" data-background-color="#ffffff" preserveAspectRatio="xMidYMid meet" height="348" width="2000" xmlns="http://www.w3.org/2000/svg" xmlns:xlink="http://www.w3.org/1999/xlink"><g id="tight-bounds" transform="matrix(1,0,0,1,0.2581016247942216,0.23141975654090174)"><svg viewBox="0 0 395.52 68.52677555114552" height="68.52677555114552" width="395.52"><g><svg viewBox="0 0 495.5550493824196 85.85859031721759" height="68.52677555114552" width="395.52"><g><rect width="2.192729617416393" height="74.55159795995738" x="92.10218987647865" y="5.653496178630107" fill="#fffdfa" opacity="1" stroke-width="0" stroke="transparent" fill-opacity="1" class="rect-yte-0" data-fill-palette-color="primary" rx="1%" id="yte-0" data-palette-color="#fffdfa"></rect></g><g transform="matrix(1,0,0,1,100.03504938241963,11.866129341959887)"><svg viewBox="0 0 395.52 62.126331633297816" height="62.126331633297816" width="395.52"><g id="textblocktransform"><svg viewBox="0 0 395.52 62.126331633297816" height="62.126331633297816" width="395.52" id="textblock"><g><svg viewBox="0 0 395.52 24.314754098360652" height="24.314754098360652" width="395.52"><g transform="matrix(1,0,0,1,0,0)"><svg width="395.52" viewBox="3 -35.25 585.54 36" height="24.314754098360652" data-palette-color="#fffdfa"><path d="M10.9-34.55Q17.15-34.55 20.43-31.78 23.7-29 23.7-23.6L23.7-23.6Q23.7-17.85 20.48-15 17.25-12.15 11.35-12.15L11.35-12.15 9.35-12.15 9.35 0 3 0 3-34.55 10.9-34.55ZM11-16.9Q14.25-16.9 15.7-18.4 17.15-19.9 17.15-23.55L17.15-23.55Q17.15-26.85 15.7-28.35 14.25-29.85 11.05-29.85L11.05-29.85 9.35-29.85 9.35-16.9 11-16.9ZM49.4 0L42.95 0 41.25-8.1 32.35-8.1 30.7 0 24.35 0 33.05-34.55 40.75-34.55 49.4 0ZM36.8-29.7L33.35-12.9 40.3-12.9 36.8-29.7ZM74.65 0L67.8 0 61.7-13.95 61.09-13.95 58.65-13.95 58.65 0 52.3 0 52.3-34.55 60.45-34.55Q72.95-34.55 72.95-24.4L72.95-24.4Q72.95-21.25 71.55-18.82 70.15-16.4 67.34-15.15L67.34-15.15 74.65 0ZM60.75-18.55Q63.7-18.55 65.02-19.95 66.34-21.35 66.34-24.4L66.34-24.4Q66.34-27.25 64.97-28.58 63.59-29.9 60.45-29.9L60.45-29.9 58.65-29.9 58.65-18.55 60.75-18.55ZM99.79 0L93.34 0 91.64-8.1 82.74-8.1 81.09 0 74.74 0 83.44-34.55 91.14-34.55 99.79 0ZM87.19-29.7L83.74-12.9 90.69-12.9 87.19-29.7ZM100.09-34.55L121.64-34.55 120.94-29.55 113.84-29.55 113.84 0 107.49 0 107.49-29.55 100.09-29.55 100.09-34.55ZM146.04-34.55L146.04-9.7Q146.04-5.15 143.21-2.23 140.39 0.7 135.14 0.7L135.14 0.7Q129.79 0.7 126.99-2.18 124.19-5.05 124.19-9.7L124.19-9.7 124.19-34.55 130.54-34.55 130.54-10Q130.54-7.1 131.64-5.68 132.74-4.25 135.14-4.25L135.14-4.25Q137.49-4.25 138.59-5.68 139.69-7.1 139.69-10L139.69-10 139.69-34.55 146.04-34.55ZM160.28-35.25Q163.28-35.25 165.59-34.2 167.88-33.15 169.84-31.05L169.84-31.05 166.88-27.65Q165.34-29.05 163.86-29.75 162.38-30.45 160.73-30.45L160.73-30.45Q158.84-30.45 157.73-29.28 156.63-28.1 156.63-26.2L156.63-26.2Q156.63-24.3 157.78-23.1 158.94-21.9 162.28-20.6L162.28-20.6Q166.59-18.85 168.61-16.5 170.63-14.15 170.63-9.85L170.63-9.85Q170.63-6.9 169.28-4.48 167.94-2.05 165.41-0.65 162.88 0.75 159.53 0.75L159.53 0.75Q156.09 0.75 153.53-0.48 150.98-1.7 148.88-3.95L148.88-3.95 152.09-7.45Q153.88-5.85 155.53-5 157.19-4.15 159.13-4.15L159.13-4.15Q161.44-4.15 162.71-5.58 163.98-7 163.98-9.45L163.98-9.45Q163.98-11.6 162.86-12.98 161.73-14.35 158.69-15.5L158.69-15.5Q154.09-17.35 152.06-19.75 150.03-22.15 150.03-25.75L150.03-25.75Q150.03-28.5 151.36-30.65 152.69-32.8 155.03-34.02 157.38-35.25 160.28-35.25L160.28-35.25ZM192.53-34.55Q198.78-34.55 202.06-31.78 205.33-29 205.33-23.6L205.33-23.6Q205.33-17.85 202.1-15 198.88-12.15 192.98-12.15L192.98-12.15 190.98-12.15 190.98 0 184.63 0 184.63-34.55 192.53-34.55ZM192.63-16.9Q195.88-16.9 197.33-18.4 198.78-19.9 198.78-23.55L198.78-23.55Q198.78-26.85 197.33-28.35 195.88-29.85 192.68-29.85L192.68-29.85 190.98-29.85 190.98-16.9 192.63-16.9ZM231.03 0L224.58 0 222.88-8.1 213.98-8.1 212.33 0 205.98 0 214.68-34.55 222.38-34.55 231.03 0ZM218.43-29.7L214.98-12.9 221.93-12.9 218.43-29.7ZM256.27 0L249.42 0 243.32-13.95 242.72-13.95 240.27-13.95 240.27 0 233.92 0 233.92-34.55 242.07-34.55Q254.57-34.55 254.57-24.4L254.57-24.4Q254.57-21.25 253.17-18.82 251.77-16.4 248.97-15.15L248.97-15.15 256.27 0ZM242.37-18.55Q245.32-18.55 246.65-19.95 247.97-21.35 247.97-24.4L247.97-24.4Q247.97-27.25 246.6-28.58 245.22-29.9 242.07-29.9L242.07-29.9 240.27-29.9 240.27-18.55 242.37-18.55ZM256.87-34.55L278.42-34.55 277.72-29.55 270.62-29.55 270.62 0 264.27 0 264.27-29.55 256.87-29.55 256.87-34.55ZM303.07-34.55L303.07 0 294.97 0 286.22-28.3Q286.62-24.7 286.84-21.68 287.07-18.65 287.07-14.5L287.07-14.5 287.07 0 281.47 0 281.47-34.55 289.52-34.55 298.27-6.25Q297.97-8.05 297.69-11.35 297.42-14.65 297.42-18.05L297.42-18.05 297.42-34.55 303.07-34.55ZM309.07-34.55L326.22-34.55 325.57-29.8 315.42-29.8 315.42-19.9 324.27-19.9 324.27-15.2 315.42-15.2 315.42-4.8 326.22-4.8 326.22 0 309.07 0 309.07-34.55ZM353.06 0L346.21 0 340.11-13.95 339.51-13.95 337.06-13.95 337.06 0 330.71 0 330.71-34.55 338.86-34.55Q351.36-34.55 351.36-24.4L351.36-24.4Q351.36-21.25 349.96-18.82 348.56-16.4 345.76-15.15L345.76-15.15 353.06 0ZM339.16-18.55Q342.11-18.55 343.44-19.95 344.76-21.35 344.76-24.4L344.76-24.4Q344.76-27.25 343.39-28.58 342.01-29.9 338.86-29.9L338.86-29.9 337.06-29.9 337.06-18.55 339.16-18.55ZM365.01-35.25Q368.01-35.25 370.31-34.2 372.61-33.15 374.56-31.05L374.56-31.05 371.61-27.65Q370.06-29.05 368.59-29.75 367.11-30.45 365.46-30.45L365.46-30.45Q363.56-30.45 362.46-29.28 361.36-28.1 361.36-26.2L361.36-26.2Q361.36-24.3 362.51-23.1 363.66-21.9 367.01-20.6L367.01-20.6Q371.31-18.85 373.34-16.5 375.36-14.15 375.36-9.85L375.36-9.85Q375.36-6.9 374.01-4.48 372.66-2.05 370.14-0.65 367.61 0.75 364.26 0.75L364.26 0.75Q360.81 0.75 358.26-0.48 355.71-1.7 353.61-3.95L353.61-3.95 356.81-7.45Q358.61-5.85 360.26-5 361.91-4.15 363.86-4.15L363.86-4.15Q366.16-4.15 367.44-5.58 368.71-7 368.71-9.45L368.71-9.45Q368.71-11.6 367.59-12.98 366.46-14.35 363.41-15.5L363.41-15.5Q358.81-17.35 356.79-19.75 354.76-22.15 354.76-25.75L354.76-25.75Q354.76-28.5 356.09-30.65 357.41-32.8 359.76-34.02 362.11-35.25 365.01-35.25L365.01-35.25ZM389.36-34.55L395.71-34.55 395.71 0 389.36 0 389.36-34.55ZM405.46-34.55L411.91-34.55 402.51-18.9 412.66 0 405.66 0 395.96-18.45 405.46-34.55ZM415.31-34.55L432.45-34.55 431.81-29.8 421.66-29.8 421.66-19.9 430.5-19.9 430.5-15.2 421.66-15.2 421.66-4.8 432.45-4.8 432.45 0 415.31 0 415.31-34.55ZM458.55-34.55L458.55 0 450.45 0 441.7-28.3Q442.1-24.7 442.33-21.68 442.55-18.65 442.55-14.5L442.55-14.5 442.55 0 436.95 0 436.95-34.55 445-34.55 453.75-6.25Q453.45-8.05 453.18-11.35 452.9-14.65 452.9-18.05L452.9-18.05 452.9-34.55 458.55-34.55ZM479.4-34.55L485.9-34.55 476.8-13.15 476.8 0 470.4 0 470.4-13.1 461.3-34.55 468.05-34.55 473.7-18.3 479.4-34.55ZM510.6 0L504.15 0 502.45-8.1 493.55-8.1 491.9 0 485.55 0 494.25-34.55 501.95-34.55 510.6 0ZM498-29.7L494.55-12.9 501.5-12.9 498-29.7ZM523.34-34.55L529.69-34.55 529.69-5.25 540.84-5.25 540.14 0 523.34 0 523.34-34.55ZM541.59-34.55L563.14-34.55 562.44-29.55 555.34-29.55 555.34 0 548.99 0 548.99-29.55 541.59-29.55 541.59-34.55ZM573.89-34.55Q578.24-34.55 581.41-33.23 584.59-31.9 586.56-28.13 588.54-24.35 588.54-17.45L588.54-17.45Q588.54-7.7 584.66-3.85 580.79 0 574.54 0L574.54 0 566.19 0 566.19-34.55 573.89-34.55ZM574.84-29.8L572.54-29.8 572.54-4.75 574.89-4.75Q577.14-4.75 578.66-5.8 580.19-6.85 581.06-9.65 581.94-12.45 581.94-17.45L581.94-17.45Q581.94-22.55 581.01-25.25 580.09-27.95 578.56-28.88 577.04-29.8 574.84-29.8L574.84-29.8Z" opacity="1" transform="matrix(1,0,0,1,0,0)" fill="#fffdfa" class="wordmark-text-0" data-fill-palette-color="primary" id="text-0"></path></svg></g></svg></g><g transform="matrix(1,0,0,1,0,30.05488398688524)"><svg viewBox="0 0 375.74399999999997 32.07144764641257" height="32.07144764641257" width="375.74399999999997"><g transform="matrix(1,0,0,1,0,0)"><svg width="375.74399999999997" viewBox="3 -39.65 591.58 50.5" height="32.07144764641257" data-palette-color="#896429"><path d="M3-34.55L20.15-34.55 19.5-29.8 9.35-29.8 9.35-19.9 18.2-19.9 18.2-15.2 9.35-15.2 9.35-4.8 20.15-4.8 20.15 0 3 0 3-34.55ZM48.15-27.15Q50.8-27.15 52.4-25.1 54-23.05 54-19.6L54-19.6 54 0 47.95 0 47.95-18.95Q47.95-20.85 47.45-21.68 46.95-22.5 46-22.5L46-22.5Q44.05-22.5 42.25-18.8L42.25-18.8 42.25 0 36.25 0 36.25-18.95Q36.25-22.5 34.35-22.5L34.35-22.5Q32.3-22.5 30.55-18.8L30.55-18.8 30.55 0 24.5 0 24.5-26.45 29.85-26.45 30.25-23.05Q32.85-27.15 36.5-27.15L36.5-27.15Q38.35-27.15 39.7-26 41.05-24.85 41.75-22.75L41.75-22.75Q44.4-27.15 48.15-27.15L48.15-27.15ZM71.7-27.15Q75.59-27.15 77.59-23.58 79.59-20 79.59-13.3L79.59-13.3Q79.59-6.8 77.32-3.03 75.05 0.75 71 0.75L71 0.75Q67.8 0.75 65.65-2.1L65.65-2.1 65.65 10.15 59.5 10.85 59.5-26.45 64.95-26.45 65.2-23.25Q66.5-25.25 68.09-26.2 69.7-27.15 71.7-27.15L71.7-27.15ZM69.34-3.95Q71.25-3.95 72.25-6.13 73.25-8.3 73.25-13.25L73.25-13.25Q73.25-18.45 72.4-20.5 71.55-22.55 69.75-22.55L69.75-22.55Q67.45-22.55 65.65-19.25L65.65-19.25 65.65-6.45Q67.25-3.95 69.34-3.95L69.34-3.95ZM93.59-27.15Q98.59-27.15 101.37-23.65 104.14-20.15 104.14-13.25L104.14-13.25Q104.14-6.65 101.34-2.95 98.54 0.75 93.59 0.75L93.59 0.75Q88.64 0.75 85.84-2.88 83.04-6.5 83.04-13.25L83.04-13.25Q83.04-19.95 85.84-23.55 88.64-27.15 93.59-27.15L93.59-27.15ZM93.59-22.5Q91.44-22.5 90.44-20.38 89.44-18.25 89.44-13.25L89.44-13.25Q89.44-8.2 90.44-6.08 91.44-3.95 93.59-3.95L93.59-3.95Q95.74-3.95 96.74-6.08 97.74-8.2 97.74-13.25L97.74-13.25Q97.74-18.3 96.74-20.4 95.74-22.5 93.59-22.5L93.59-22.5ZM130.74-26.45L136.44-26.45 131.89 0 124.39 0 121.44-20.85 118.54 0 111.09 0 106.44-26.45 112.39-26.45 115.09-4.6 118.44-26.45 124.69-26.45 127.89-4.6 130.74-26.45ZM158.79-13.85Q158.79-13.4 158.64-11.3L158.64-11.3 144.99-11.3Q145.19-7.2 146.41-5.58 147.64-3.95 149.89-3.95L149.89-3.95Q151.44-3.95 152.69-4.48 153.94-5 155.39-6.15L155.39-6.15 157.94-2.65Q154.44 0.75 149.54 0.75L149.54 0.75Q144.34 0.75 141.56-2.85 138.79-6.45 138.79-13L138.79-13Q138.79-19.55 141.44-23.35 144.09-27.15 148.94-27.15L148.94-27.15Q153.59-27.15 156.19-23.78 158.79-20.4 158.79-13.85L158.79-13.85ZM152.79-15.3L152.79-15.65Q152.79-19.4 151.89-21.13 150.99-22.85 148.99-22.85L148.99-22.85Q147.14-22.85 146.16-21.18 145.19-19.5 144.99-15.3L144.99-15.3 152.79-15.3ZM174.74-27.1Q175.89-27.1 176.79-26.75L176.79-26.75 175.79-20.85Q174.79-21.1 173.94-21.1L173.94-21.1Q172.04-21.1 170.94-19.45 169.84-17.8 169.24-14.55L169.24-14.55 169.24 0 163.09 0 163.09-26.45 168.44-26.45 168.89-21.85Q170.74-27.1 174.74-27.1L174.74-27.1ZM179.63-26.45L185.78-26.45 185.78 0 179.63 0 179.63-26.45ZM182.68-39.65Q184.33-39.65 185.36-38.6 186.38-37.55 186.38-35.9L186.38-35.9Q186.38-34.3 185.36-33.25 184.33-32.2 182.68-32.2L182.68-32.2Q181.03-32.2 180.01-33.25 178.98-34.3 178.98-35.9L178.98-35.9Q178.98-37.55 180.01-38.6 181.03-39.65 182.68-39.65L182.68-39.65ZM203.83-27.15Q206.68-27.15 208.33-25.1 209.98-23.05 209.98-19.6L209.98-19.6 209.98 0 203.83 0 203.83-18.9Q203.83-20.8 203.31-21.63 202.78-22.45 201.78-22.45L201.78-22.45Q199.68-22.45 197.63-18.5L197.63-18.5 197.63 0 191.48 0 191.48-26.45 196.83-26.45 197.28-23Q198.63-25.1 200.16-26.13 201.68-27.15 203.83-27.15L203.83-27.15ZM233.48-29.85L235.03-25.1Q233.98-24.6 232.5-24.4 231.03-24.2 228.83-24.2L228.83-24.2Q230.93-23.2 231.95-21.53 232.98-19.85 232.98-17.4L232.98-17.4Q232.98-13.4 230.53-10.95 228.08-8.5 223.88-8.5L223.88-8.5Q222.63-8.5 221.33-8.9L221.33-8.9Q220.43-8.15 220.43-6.85L220.43-6.85Q220.43-5.85 220.98-5.35 221.53-4.85 223.03-4.85L223.03-4.85 225.83-4.85Q229.83-4.85 232.18-2.78 234.53-0.7 234.53 2.5L234.53 2.5Q234.53 6.3 231.6 8.58 228.68 10.85 223.28 10.85L223.28 10.85Q217.58 10.85 215.3 8.75 213.03 6.65 213.03 2.6L213.03 2.6 218.48 2.6Q218.48 4.75 219.48 5.65 220.48 6.55 223.33 6.55L223.33 6.55Q226.08 6.55 227.23 5.6 228.38 4.65 228.38 2.9L228.38 2.9Q228.38 1.2 227.43 0.4 226.48-0.4 224.48-0.4L224.48-0.4 222.58-0.4Q218.78-0.4 217.03-1.75 215.28-3.1 215.28-5.45L215.28-5.45Q215.28-6.8 216-8.03 216.73-9.25 217.98-10.2L217.98-10.2Q215.93-11.5 214.98-13.3 214.03-15.1 214.03-17.7L214.03-17.7Q214.03-22.05 216.63-24.58 219.23-27.1 223.63-27.1L223.63-27.1Q226.88-27.1 229-27.8 231.13-28.5 233.48-29.85L233.48-29.85ZM223.63-23Q221.88-23 220.98-21.75 220.08-20.5 220.08-17.8L220.08-17.8Q220.08-15.25 220.98-13.88 221.88-12.5 223.58-12.5L223.58-12.5Q225.33-12.5 226.18-13.73 227.03-14.95 227.03-17.85L227.03-17.85Q227.03-20.55 226.2-21.78 225.38-23 223.63-23L223.63-23ZM266.27-26.45L259.27 0.1Q257.97 4.9 255.07 7.65 252.17 10.4 247.32 10.85L247.32 10.85 246.62 6.5Q249.77 5.85 251.35 4.42 252.92 3 253.82 0L253.82 0 251.52 0 244.82-26.45 251.07-26.45 255.47-4.1 260.17-26.45 266.27-26.45ZM278.57-27.15Q283.57-27.15 286.35-23.65 289.12-20.15 289.12-13.25L289.12-13.25Q289.12-6.65 286.32-2.95 283.52 0.75 278.57 0.75L278.57 0.75Q273.62 0.75 270.82-2.88 268.02-6.5 268.02-13.25L268.02-13.25Q268.02-19.95 270.82-23.55 273.62-27.15 278.57-27.15L278.57-27.15ZM278.57-22.5Q276.42-22.5 275.42-20.38 274.42-18.25 274.42-13.25L274.42-13.25Q274.42-8.2 275.42-6.08 276.42-3.95 278.57-3.95L278.57-3.95Q280.72-3.95 281.72-6.08 282.72-8.2 282.72-13.25L282.72-13.25Q282.72-18.3 281.72-20.4 280.72-22.5 278.57-22.5L278.57-22.5ZM311.82-26.45L311.82 0 306.47 0 306.17-3.35Q304.92-1.3 303.37-0.28 301.82 0.75 299.77 0.75L299.77 0.75Q296.87 0.75 295.19-1.3 293.52-3.35 293.52-6.65L293.52-6.65 293.52-26.45 299.67-26.45 299.67-7Q299.67-3.9 301.77-3.9L301.77-3.9Q302.97-3.9 303.92-4.83 304.87-5.75 305.67-7.45L305.67-7.45 305.67-26.45 311.82-26.45ZM329.17-27.1Q330.32-27.1 331.22-26.75L331.22-26.75 330.22-20.85Q329.22-21.1 328.37-21.1L328.37-21.1Q326.47-21.1 325.37-19.45 324.27-17.8 323.67-14.55L323.67-14.55 323.67 0 317.52 0 317.52-26.45 322.87-26.45 323.32-21.85Q325.17-27.1 329.17-27.1L329.17-27.1ZM356.86-37.7L363.01-37.05 363.01 0 357.56 0 357.26-3.05Q354.91 0.75 351.21 0.75L351.21 0.75Q347.11 0.75 344.94-2.93 342.76-6.6 342.76-13.2L342.76-13.2Q342.76-17.4 343.89-20.58 345.01-23.75 347.01-25.45 349.01-27.15 351.61-27.15L351.61-27.15Q354.81-27.15 356.86-24.5L356.86-24.5 356.86-37.7ZM352.96-3.9Q354.11-3.9 355.04-4.7 355.96-5.5 356.86-7L356.86-7 356.86-19.85Q355.26-22.55 353.21-22.55L353.21-22.55Q349.16-22.55 349.16-13.25L349.16-13.25Q349.16-8.2 350.16-6.05 351.16-3.9 352.96-3.9L352.96-3.9ZM368.71-26.45L374.86-26.45 374.86 0 368.71 0 368.71-26.45ZM371.76-39.65Q373.41-39.65 374.43-38.6 375.46-37.55 375.46-35.9L375.46-35.9Q375.46-34.3 374.43-33.25 373.41-32.2 371.76-32.2L371.76-32.2Q370.11-32.2 369.08-33.25 368.06-34.3 368.06-35.9L368.06-35.9Q368.06-37.55 369.08-38.6 370.11-39.65 371.76-39.65L371.76-39.65ZM398.51-29.85L400.06-25.1Q399.01-24.6 397.53-24.4 396.06-24.2 393.86-24.2L393.86-24.2Q395.96-23.2 396.98-21.53 398.01-19.85 398.01-17.4L398.01-17.4Q398.01-13.4 395.56-10.95 393.11-8.5 388.91-8.5L388.91-8.5Q387.66-8.5 386.36-8.9L386.36-8.9Q385.46-8.15 385.46-6.85L385.46-6.85Q385.46-5.85 386.01-5.35 386.56-4.85 388.06-4.85L388.06-4.85 390.86-4.85Q394.86-4.85 397.21-2.78 399.56-0.7 399.56 2.5L399.56 2.5Q399.56 6.3 396.63 8.58 393.71 10.85 388.31 10.85L388.31 10.85Q382.61 10.85 380.33 8.75 378.06 6.65 378.06 2.6L378.06 2.6 383.51 2.6Q383.51 4.75 384.51 5.65 385.51 6.55 388.36 6.55L388.36 6.55Q391.11 6.55 392.26 5.6 393.41 4.65 393.41 2.9L393.41 2.9Q393.41 1.2 392.46 0.4 391.51-0.4 389.51-0.4L389.51-0.4 387.61-0.4Q383.81-0.4 382.06-1.75 380.31-3.1 380.31-5.45L380.31-5.45Q380.31-6.8 381.03-8.03 381.76-9.25 383.01-10.2L383.01-10.2Q380.96-11.5 380.01-13.3 379.06-15.1 379.06-17.7L379.06-17.7Q379.06-22.05 381.66-24.58 384.26-27.1 388.66-27.1L388.66-27.1Q391.91-27.1 394.03-27.8 396.16-28.5 398.51-29.85L398.51-29.85ZM388.66-23Q386.91-23 386.01-21.75 385.11-20.5 385.11-17.8L385.11-17.8Q385.11-15.25 386.01-13.88 386.91-12.5 388.61-12.5L388.61-12.5Q390.36-12.5 391.21-13.73 392.06-14.95 392.06-17.85L392.06-17.85Q392.06-20.55 391.23-21.78 390.41-23 388.66-23L388.66-23ZM402.8-26.45L408.95-26.45 408.95 0 402.8 0 402.8-26.45ZM405.85-39.65Q407.5-39.65 408.53-38.6 409.55-37.55 409.55-35.9L409.55-35.9Q409.55-34.3 408.53-33.25 407.5-32.2 405.85-32.2L405.85-32.2Q404.2-32.2 403.18-33.25 402.15-34.3 402.15-35.9L402.15-35.9Q402.15-37.55 403.18-38.6 404.2-39.65 405.85-39.65L405.85-39.65ZM425.8-5L427.95-1.2Q425.5 0.75 422.2 0.75L422.2 0.75Q418.75 0.75 416.95-1.23 415.15-3.2 415.15-6.6L415.15-6.6 415.15-22 412.05-22 412.05-26.45 415.15-26.45 415.15-32.3 421.3-33.05 421.3-26.45 426.3-26.45 425.7-22 421.3-22 421.3-6.6Q421.3-4.2 423.35-4.2L423.35-4.2Q424-4.2 424.5-4.38 425-4.55 425.8-5L425.8-5ZM447.4-6.4Q447.4-5.1 447.75-4.48 448.1-3.85 448.9-3.45L448.9-3.45 447.65 0.65Q445.6 0.4 444.37-0.45 443.15-1.3 442.55-3.05L442.55-3.05Q440.25 0.75 436.1 0.75L436.1 0.75Q432.8 0.75 430.85-1.48 428.9-3.7 428.9-7.4L428.9-7.4Q428.9-11.7 431.57-13.95 434.25-16.2 439.35-16.2L439.35-16.2 441.4-16.2 441.4-18.05Q441.4-20.55 440.52-21.58 439.65-22.6 437.7-22.6L437.7-22.6Q435.35-22.6 431.85-21.3L431.85-21.3 430.45-25.3Q432.45-26.2 434.6-26.68 436.75-27.15 438.7-27.15L438.7-27.15Q447.4-27.15 447.4-18.35L447.4-18.35 447.4-6.4ZM437.75-3.7Q440.15-3.7 441.4-7L441.4-7 441.4-12.55 439.95-12.55Q437.4-12.55 436.22-11.4 435.05-10.25 435.05-7.85L435.05-7.85Q435.05-5.8 435.75-4.75 436.45-3.7 437.75-3.7L437.75-3.7ZM458.8 0.75Q456.1 0.75 454.52-0.93 452.95-2.6 452.95-5.4L452.95-5.4 452.95-37.05 459.1-37.7 459.1-5.65Q459.1-5 459.4-4.6 459.7-4.2 460.3-4.2L460.3-4.2Q460.65-4.2 460.97-4.3 461.3-4.4 461.4-4.4L461.4-4.4 462.6-0.2Q460.9 0.75 458.8 0.75L458.8 0.75ZM481.99 0L475.64 0 475.64-34.55 492.34-34.55 491.64-29.8 481.99-29.8 481.99-19.25 490.39-19.25 490.39-14.5 481.99-14.5 481.99 0ZM513.79-26.45L513.79 0 508.44 0 508.14-3.35Q506.89-1.3 505.34-0.28 503.79 0.75 501.74 0.75L501.74 0.75Q498.84 0.75 497.16-1.3 495.49-3.35 495.49-6.65L495.49-6.65 495.49-26.45 501.64-26.45 501.64-7Q501.64-3.9 503.74-3.9L503.74-3.9Q504.94-3.9 505.89-4.83 506.84-5.75 507.64-7.45L507.64-7.45 507.64-26.45 513.79-26.45ZM530.64-5L532.79-1.2Q530.34 0.75 527.04 0.75L527.04 0.75Q523.59 0.75 521.79-1.23 519.99-3.2 519.99-6.6L519.99-6.6 519.99-22 516.89-22 516.89-26.45 519.99-26.45 519.99-32.3 526.14-33.05 526.14-26.45 531.14-26.45 530.54-22 526.14-22 526.14-6.6Q526.14-4.2 528.19-4.2L528.19-4.2Q528.84-4.2 529.34-4.38 529.84-4.55 530.64-5L530.64-5ZM553.48-26.45L553.48 0 548.13 0 547.83-3.35Q546.58-1.3 545.03-0.28 543.48 0.75 541.43 0.75L541.43 0.75Q538.53 0.75 536.86-1.3 535.18-3.35 535.18-6.65L535.18-6.65 535.18-26.45 541.33-26.45 541.33-7Q541.33-3.9 543.43-3.9L543.43-3.9Q544.63-3.9 545.58-4.83 546.53-5.75 547.33-7.45L547.33-7.45 547.33-26.45 553.48-26.45ZM570.83-27.1Q571.98-27.1 572.88-26.75L572.88-26.75 571.88-20.85Q570.88-21.1 570.03-21.1L570.03-21.1Q568.13-21.1 567.03-19.45 565.93-17.8 565.33-14.55L565.33-14.55 565.33 0 559.18 0 559.18-26.45 564.53-26.45 564.98-21.85Q566.83-27.1 570.83-27.1L570.83-27.1ZM594.58-13.85Q594.58-13.4 594.43-11.3L594.43-11.3 580.78-11.3Q580.98-7.2 582.2-5.58 583.43-3.95 585.68-3.95L585.68-3.95Q587.23-3.95 588.48-4.48 589.73-5 591.18-6.15L591.18-6.15 593.73-2.65Q590.23 0.75 585.33 0.75L585.33 0.75Q580.13 0.75 577.35-2.85 574.58-6.45 574.58-13L574.58-13Q574.58-19.55 577.23-23.35 579.88-27.15 584.73-27.15L584.73-27.15Q589.38-27.15 591.98-23.78 594.58-20.4 594.58-13.85L594.58-13.85ZM588.58-15.3L588.58-15.65Q588.58-19.4 587.68-21.13 586.78-22.85 584.78-22.85L584.78-22.85Q582.93-22.85 581.95-21.18 580.98-19.5 580.78-15.3L580.78-15.3 588.58-15.3Z" opacity="1" transform="matrix(1,0,0,1,0,0)" fill="#896429" class="slogan-text-1" data-fill-palette-color="secondary" id="text-1"></path></svg></g></svg></g></svg></g></svg></g><g><svg viewBox="0 0 86.36205998795405 85.85859031721759" height="85.85859031721759" width="86.36205998795405"><g><svg xmlns="http://www.w3.org/2000/svg" viewBox="20 20.173631984616488 60.018743579525974 59.66884899535076" x="0" y="0" height="85.85859031721759" width="86.36205998795405" class="icon-icon-0" data-fill-palette-color="accent" id="icon-0"><g data-name="Calque 2" fill="#f9f9f9" data-fill-palette-color="accent"><path d="M23.82 23.07A1.82 1.82 0 1 1 22 24.88 1.82 1.82 0 0 1 23.82 23.07M23.82 28.65A3.73 3.73 0 0 0 25.82 28.09C27.89 29.53 34.9 34.54 36.03 35.23A6.25 6.25 0 0 0 39.22 36.48C39.85 36.48 41.22 36.54 43.35 36.54A2.75 2.75 0 0 0 45.8 38 2.76 2.76 0 1 0 43.11 34.68C41.17 34.68 39.85 34.68 39.29 34.62A3.8 3.8 0 0 1 37 33.71C36 33.08 29.36 28.32 27.1 26.71A4 4 0 0 0 27.57 25 3.7 3.7 0 0 0 23.87 21.3 3.74 3.74 0 0 0 20.17 25 3.6 3.6 0 0 0 23.82 28.64Z" fill="#f9f9f9" data-fill-palette-color="accent"></path><path d="M22.13 44.61A1.82 1.82 0 1 1 23.95 46.43 1.78 1.78 0 0 1 22.13 44.61M27.52 45.55H33A2.71 2.71 0 0 0 35.57 47.37 2.76 2.76 0 0 0 35.57 41.86 2.71 2.71 0 0 0 33 43.67H27.52A3.76 3.76 0 0 0 23.95 40.91 3.7 3.7 0 0 0 20.25 44.61 3.74 3.74 0 0 0 23.95 48.31 3.52 3.52 0 0 0 27.52 45.55" fill="#f9f9f9" data-fill-palette-color="accent"></path><path d="M28.33 49.87A1.82 1.82 0 1 1 26.51 51.69 1.82 1.82 0 0 1 28.33 49.87M28.33 55.45A3.7 3.7 0 0 0 31.9 52.69H33A2.72 2.72 0 0 0 35.57 54.51 2.76 2.76 0 0 0 35.57 49 2.71 2.71 0 0 0 33 50.81H31.9A3.76 3.76 0 0 0 28.33 48.05 3.7 3.7 0 0 0 28.33 55.44Z" fill="#f9f9f9" data-fill-palette-color="accent"></path><path d="M23.7 75.24A1.82 1.82 0 1 1 25.52 73.42 1.78 1.78 0 0 1 23.7 75.24M24.76 69.85V63.4C24.76 60.46 25.76 59.83 27.45 59.83 29.52 59.83 31.83 59.83 32.84 59.89A2.73 2.73 0 0 0 35.47 61.71 2.76 2.76 0 1 0 35.47 56.2 2.71 2.71 0 0 0 32.9 58C31.84 58 29.52 57.94 27.51 57.94 22.87 57.94 22.87 62.01 22.87 63.39V69.78A3.76 3.76 0 0 0 20 73.42 3.7 3.7 0 0 0 23.7 77.12 3.74 3.74 0 0 0 27.4 73.42 3.58 3.58 0 0 0 24.76 69.86Z" fill="#f9f9f9" data-fill-palette-color="accent"></path><path d="M75.06 75.24A1.82 1.82 0 1 1 76.88 73.42 1.82 1.82 0 0 1 75.06 75.24M75.87 69.79V63.4C75.87 62.09 75.87 57.95 71.3 57.95 69.23 57.95 66.92 57.95 65.91 58.01A2.71 2.71 0 0 0 63.34 56.19 2.76 2.76 0 1 0 63.34 61.7 2.85 2.85 0 0 0 66 59.9C67.06 59.9 69.38 59.84 71.39 59.84 73 59.83 74 60.4 74 63.4V69.85A3.7 3.7 0 0 0 75 77.11 3.71 3.71 0 0 0 75.82 69.78Z" fill="#f9f9f9" data-fill-palette-color="accent"></path><path d="M72.42 23.69A1.57 1.57 0 1 1 74 25.26 1.59 1.59 0 0 1 72.42 23.69M63.59 47.37A2.76 2.76 0 0 0 66 45.86H70.57C74.83 45.86 74.83 42.1 74.83 40.86V27A3.46 3.46 0 1 0 70.57 23.62 3.44 3.44 0 0 0 73.05 27V40.9C73.05 43.53 72.23 44.03 70.67 44.03H66.35A2.75 2.75 0 0 0 60.9 44.59 2.63 2.63 0 0 0 63.59 47.37" fill="#f9f9f9" data-fill-palette-color="accent"></path><path d="M76.37 50.13A1.82 1.82 0 1 1 74.55 51.95 1.78 1.78 0 0 1 76.37 50.13M63.37 54.7A2.71 2.71 0 0 0 66 52.88H72.77A3.76 3.76 0 0 0 76.34 55.64 3.7 3.7 0 1 0 72.74 51H66A2.71 2.71 0 0 0 63.43 49.18 2.78 2.78 0 0 0 60.67 51.94 2.73 2.73 0 0 0 63.4 54.7Z" fill="#f9f9f9" data-fill-palette-color="accent"></path><rect x="40.48" y="39.98" width="18.04" height="23.93" rx="3.95" ry="3.95" fill="#f9f9f9" data-fill-palette-color="accent"></rect><path d="M40.48 24.45A1.82 1.82 0 1 1 38.66 26.27 1.86 1.86 0 0 1 40.48 24.45M40.48 30.03A3.7 3.7 0 0 0 44 27.33H50.26C50.95 27.33 51.57 27.33 51.83 27.58S52.14 28.02 52.14 28.83C52.14 29.96 52.14 31.46 52.08 32.65A2.76 2.76 0 1 0 55.84 35.22 2.76 2.76 0 0 0 53.9 32.59C53.9 31.4 53.96 29.96 53.96 28.83A3.32 3.32 0 0 0 53.14 26.26 3.7 3.7 0 0 0 50.26 25.51H44.06A3.71 3.71 0 1 0 40.48 30Z" fill="#f9f9f9" data-fill-palette-color="accent"></path><path d="M35 76.18A1.82 1.82 0 1 1 33.18 74.36 1.78 1.78 0 0 1 35 76.18M45.8 66A2.71 2.71 0 0 0 43.3 67.6H36.3C34.99 67.6 32.23 67.6 32.23 71.3V72.55A3.68 3.68 0 0 0 33.11 79.82 3.74 3.74 0 0 0 36.81 76.12 3.7 3.7 0 0 0 34.12 72.55C34.12 72.18 34.06 71.73 34.06 71.3 34.06 69.61 34.62 69.48 36.25 69.48H43.08A2.69 2.69 0 0 0 45.71 71.48 2.78 2.78 0 0 0 48.47 68.72 2.69 2.69 0 0 0 45.8 66" fill="#f9f9f9" data-fill-palette-color="accent"></path><path d="M62.71 78A1.82 1.82 0 0 1 60.89 76.18 1.87 1.87 0 0 1 62.71 74.3 1.82 1.82 0 0 1 64.53 76.12 1.87 1.87 0 0 1 62.71 78M63.59 72.55V71.29C63.59 67.59 60.83 67.59 59.52 67.59H55.7A2.67 2.67 0 0 0 53.2 66 2.76 2.76 0 1 0 55.83 69.51H59.53C61.16 69.51 61.72 69.63 61.72 71.33A8 8 0 0 1 61.66 72.58 3.7 3.7 0 1 0 66.36 76.15 3.57 3.57 0 0 0 63.59 72.55" fill="#f9f9f9" data-fill-palette-color="accent"></path></g></svg></g></svg></g></svg></g><defs></defs></svg><rect width="395.52" height="68.52677555114552" fill="none" stroke="none" visibility="hidden"></rect></g></svg></g></svg>