<svg xmlns="http://www.w3.org/2000/svg" width="90" height="76" viewBox="0 0 90 76" fill="none"><path d="M42.65 37.2698C42.5866 37.4771 42.4436 37.6507 42.2522 37.7526C42.0609 37.8545 41.8369 37.8762 41.6295 37.813C38.1958 36.7625 35.5665 37.7005 33.5923 40.6727C33.5331 40.7627 33.4568 40.8402 33.3676 40.9006C33.2784 40.961 33.1781 41.0032 33.0726 41.0248C32.967 41.0464 32.8582 41.0469 32.7525 41.0263C32.6467 41.0057 32.5461 40.9644 32.4564 40.9048C32.3666 40.8452 32.2895 40.7685 32.2295 40.679C32.1695 40.5895 32.1278 40.489 32.1067 40.3834C32.0856 40.2777 32.0857 40.1689 32.1068 40.0633C32.1279 39.9576 32.1696 39.8572 32.2296 39.7677C32.9859 38.573 33.9983 37.5614 35.1936 36.806C33.833 36.1342 32.7668 34.9859 32.1976 33.5793C31.6285 32.1727 31.5961 30.606 32.1066 29.177C32.1834 28.9779 32.335 28.8168 32.5291 28.7279C32.7231 28.6391 32.9442 28.6296 33.1451 28.7015C33.346 28.7733 33.5109 28.9209 33.6045 29.1126C33.6982 29.3044 33.7132 29.5251 33.6463 29.7278C33.4137 30.3778 33.3322 31.0722 33.408 31.7584C33.4838 32.4446 33.7149 33.1045 34.0837 33.6881C34.4526 34.2717 34.9495 34.7636 35.5368 35.1265C36.1241 35.4894 36.7863 35.7137 37.4732 35.7825C37.5682 35.7914 37.6609 35.8168 37.7471 35.8576C39.2096 35.648 40.7007 35.7811 42.103 36.2463C42.2063 36.2772 42.3025 36.3283 42.386 36.3966C42.4695 36.4649 42.5386 36.5491 42.5895 36.6442C42.6403 36.7393 42.6718 36.8436 42.6822 36.9509C42.6926 37.0583 42.6817 37.1666 42.65 37.2698ZM39.5547 28.1438C39.7546 28.2238 39.9779 28.2218 40.1763 28.1383C40.3747 28.0547 40.5321 27.8963 40.6145 27.6974C40.6969 27.4985 40.6975 27.2752 40.6163 27.0758C40.535 26.8765 40.3785 26.7172 40.1806 26.6325C36.8639 25.2594 35.4292 22.8664 35.7939 19.3164C35.8075 19.2083 35.7994 19.0986 35.77 18.9936C35.7406 18.8887 35.6905 18.7907 35.6227 18.7054C35.5549 18.6201 35.4707 18.5492 35.3751 18.4969C35.2796 18.4445 35.1745 18.4118 35.0661 18.4007C34.9577 18.3895 34.8482 18.4002 34.7439 18.4319C34.6397 18.4637 34.5428 18.516 34.4591 18.5857C34.3754 18.6554 34.3064 18.7412 34.2562 18.8379C34.2061 18.9347 34.1758 19.0405 34.1671 19.1491C33.7244 23.454 35.5373 26.4802 39.5547 28.1438ZM39.1908 44.6782C38.0256 45.0388 36.949 45.6397 36.0304 46.4422C35.1118 47.2447 34.3717 48.2309 33.8579 49.3372C32.5931 49.0426 31.2791 49.0293 30.0086 49.2982C29.9313 48.7192 29.7233 48.1654 29.4002 47.6788C29.0771 47.1922 28.6475 46.7855 28.1439 46.4895C28.0506 46.4326 27.9468 46.395 27.8387 46.3788C27.7306 46.3627 27.6203 46.3684 27.5144 46.3956C27.4086 46.4228 27.3092 46.471 27.2223 46.5372C27.1353 46.6034 27.0625 46.6865 27.0082 46.7813C26.9539 46.8762 26.9191 46.9809 26.906 47.0895C26.8928 47.198 26.9016 47.308 26.9317 47.4131C26.9618 47.5182 27.0127 47.6162 27.0813 47.7013C27.1499 47.7863 27.2349 47.8568 27.3312 47.9085C27.7169 48.1426 28.0235 48.4869 28.2114 48.897C28.3994 49.3071 28.46 49.7642 28.3855 50.2091C28.3651 50.3443 28.3789 50.4824 28.4256 50.6108C28.4723 50.7393 28.5505 50.854 28.653 50.9444C28.7554 51.0349 28.8789 51.0982 29.0122 51.1286C29.1454 51.159 29.2842 51.1556 29.4158 51.1186C32.98 50.1176 35.5568 51.0728 37.5197 54.1268C37.6377 54.3081 37.8226 54.4352 38.034 54.4805C38.2455 54.5258 38.4662 54.4855 38.648 54.3685C38.8299 54.2514 38.9579 54.0672 39.0042 53.8559C39.0506 53.6447 39.0113 53.4238 38.8952 53.2414C38.0468 51.8369 36.8369 50.686 35.3917 49.909C35.8156 49.0375 36.4139 48.2623 37.1496 47.6315C37.8854 47.0007 38.7428 46.5278 39.6688 46.2419C39.8733 46.1759 40.0435 46.0322 40.1429 45.8416C40.2422 45.6511 40.2625 45.4292 40.1996 45.2238C40.1366 45.0184 39.9953 44.846 39.8063 44.7439C39.6172 44.6418 39.3956 44.6182 39.1893 44.6782H39.1908ZM56.4546 40.6727C56.5137 40.7627 56.5901 40.8402 56.6793 40.9006C56.7685 40.961 56.8687 41.0032 56.9743 41.0248C57.0799 41.0464 57.1886 41.0469 57.2944 41.0263C57.4001 41.0057 57.5008 40.9644 57.5905 40.9048C57.6803 40.8452 57.7574 40.7685 57.8174 40.679C57.8774 40.5895 57.9191 40.489 57.9402 40.3834C57.9612 40.2777 57.9612 40.1689 57.9401 40.0633C57.919 39.9576 57.8773 39.8572 57.8172 39.7677C57.0612 38.5728 56.0487 37.5612 54.8533 36.806C56.2141 36.1345 57.2806 34.9862 57.8499 33.5795C58.4193 32.1729 58.4517 30.606 57.941 29.177C57.8642 28.9779 57.7126 28.8168 57.5186 28.7279C57.3245 28.6391 57.1035 28.6296 56.9025 28.7015C56.7016 28.7733 56.5367 28.9209 56.4431 29.1126C56.3494 29.3044 56.3344 29.5251 56.4013 29.7278C56.6339 30.3778 56.7154 31.0722 56.6396 31.7584C56.5638 32.4446 56.3327 33.1045 55.9639 33.6881C55.5951 34.2717 55.0981 34.7636 54.5108 35.1265C53.9236 35.4894 53.2613 35.7137 52.5744 35.7825C52.4794 35.7913 52.3867 35.8167 52.3005 35.8576C50.8393 35.6481 49.3495 35.7809 47.9484 36.2455C47.7433 36.3108 47.5722 36.4542 47.4721 36.6448C47.3721 36.8354 47.3512 37.0577 47.414 37.2635C47.4768 37.4694 47.6182 37.6422 47.8076 37.7445C47.997 37.8468 48.219 37.8704 48.4256 37.81C51.8518 36.7655 54.4781 37.7005 56.4546 40.6727ZM50.1792 28.206C50.2866 28.2058 50.3929 28.1847 50.4921 28.1438C54.5096 26.4802 56.3225 23.454 55.8798 19.1491C55.8711 19.0405 55.8408 18.9347 55.7906 18.8379C55.7405 18.7412 55.6715 18.6554 55.5878 18.5857C55.504 18.516 55.4072 18.4637 55.303 18.4319C55.1987 18.4002 55.0892 18.3895 54.9808 18.4007C54.8724 18.4118 54.7673 18.4445 54.6717 18.4969C54.5761 18.5492 54.492 18.6201 54.4242 18.7054C54.3564 18.7907 54.3063 18.8887 54.2769 18.9936C54.2475 19.0986 54.2394 19.2083 54.253 19.3164C54.6176 22.8664 53.1829 25.2594 49.8663 26.6325C49.6901 26.704 49.5443 26.8347 49.454 27.0021C49.3637 27.1695 49.3345 27.3632 49.3716 27.5497C49.4086 27.7363 49.5095 27.9041 49.6569 28.0243C49.8043 28.1445 49.989 28.2096 50.1792 28.2083V28.206ZM61.9067 46.4895C61.4031 46.7855 60.9735 47.1922 60.6504 47.6788C60.3274 48.1654 60.1193 48.7192 60.0421 49.2982C58.7715 49.0296 57.4575 49.0429 56.1927 49.3372C55.6789 48.2309 54.9388 47.2447 54.0202 46.4422C53.1017 45.6397 52.025 45.0388 50.8598 44.6782C50.6535 44.6182 50.4319 44.6418 50.2428 44.7439C50.0538 44.846 49.9125 45.0184 49.8496 45.2238C49.7866 45.4292 49.8069 45.6511 49.9063 45.8416C50.0056 46.0322 50.1759 46.1759 50.3803 46.2419C51.3063 46.528 52.1637 47.0011 52.8995 47.632C53.6352 48.2629 54.2335 49.0382 54.6574 49.9097C53.2119 50.6862 52.0016 51.8368 51.1532 53.2414C51.0944 53.3317 51.0541 53.4327 51.0345 53.5387C51.0149 53.6446 51.0164 53.7534 51.039 53.8587C51.0616 53.9641 51.1047 54.0639 51.166 54.1525C51.2273 54.2412 51.3055 54.3168 51.396 54.3751C51.4866 54.4335 51.5879 54.4733 51.6939 54.4924C51.7999 54.5115 51.9087 54.5094 52.0139 54.4863C52.1192 54.4633 52.2188 54.4196 52.3072 54.3579C52.3955 54.2962 52.4707 54.2177 52.5286 54.1268C54.4946 51.0728 57.0714 50.1168 60.6326 51.1186C60.7642 51.1556 60.9029 51.159 61.0362 51.1286C61.1694 51.0982 61.2929 51.0349 61.3954 50.9444C61.4979 50.854 61.576 50.7393 61.6228 50.6108C61.6695 50.4824 61.6833 50.3443 61.6629 50.2091C61.5884 49.7642 61.649 49.3071 61.837 48.897C62.0249 48.4869 62.3315 48.1426 62.7171 47.9085C62.8156 47.8581 62.9028 47.7883 62.9735 47.7033C63.0442 47.6183 63.097 47.5198 63.1286 47.4138C63.1601 47.3079 63.1699 47.1966 63.1572 47.0867C63.1446 46.9769 63.1098 46.8707 63.0549 46.7747C63.0001 46.6786 62.9263 46.5947 62.8382 46.528C62.75 46.4613 62.6491 46.4132 62.5418 46.3865C62.4345 46.3599 62.3229 46.3552 62.2137 46.373C62.1046 46.3907 62.0001 46.4303 61.9067 46.4895ZM74.0252 35.0284H70.0482C70.2003 36.3601 69.99 37.7082 69.4397 38.9303C70.1913 39.6872 70.7294 40.6295 70.9993 41.6615C71.2692 42.6935 71.2613 43.7785 70.9764 44.8065C70.9359 44.952 70.8906 45.0951 70.8406 45.2357H73.0745C73.2719 44.5386 73.7148 43.9364 74.3215 43.5403C74.9281 43.1443 75.6576 42.981 76.3752 43.0806C77.0929 43.1803 77.7502 43.5362 78.226 44.0826C78.7018 44.629 78.9638 45.3291 78.9638 46.0536C78.9638 46.7781 78.7018 47.4782 78.226 48.0246C77.7502 48.571 77.0929 48.9269 76.3752 49.0265C75.6576 49.1262 74.9281 48.9629 74.3215 48.5668C73.7148 48.1707 73.2719 47.5686 73.0745 46.8715H70.7873C71.0276 49.0403 70.6092 51.2312 69.5868 53.1588L73.4392 55.7318C73.5509 55.8066 73.6425 55.9077 73.7058 56.0263C73.7692 56.1449 73.8023 56.2772 73.8023 56.4117V59.6263C74.4994 59.8237 75.1016 60.2666 75.4977 60.8733C75.8938 61.4799 76.057 62.2094 75.9574 62.927C75.8577 63.6447 75.5018 64.302 74.9554 64.7778C74.409 65.2536 73.7089 65.5156 72.9844 65.5156C72.2599 65.5156 71.5598 65.2536 71.0134 64.7778C70.467 64.302 70.1111 63.6447 70.0115 62.927C69.9118 62.2094 70.0751 61.4799 70.4712 60.8733C70.8673 60.2666 71.4694 59.8237 72.1665 59.6263V56.8499L68.66 54.508C67.9652 55.3413 67.092 56.0079 66.1049 56.4583C65.1178 56.9087 64.0421 57.1315 62.9572 57.1103C61.9728 58.6491 60.5974 59.8989 58.9715 60.7319C57.3457 61.5649 55.5278 61.9512 53.7038 61.8513C51.8797 61.7514 50.1149 61.1689 48.5898 60.1633C47.0647 59.1577 45.8339 57.7652 45.0234 56.128C44.2129 57.7652 42.9822 59.1577 41.4571 60.1633C39.932 61.1689 38.1671 61.7514 36.3431 61.8513C34.519 61.9512 32.7012 61.5649 31.0753 60.7319C29.4495 59.8989 28.0741 58.6491 27.0896 57.1103C26.0048 57.1316 24.9291 56.9088 23.942 56.4584C22.9549 56.0079 22.0816 55.3414 21.3868 54.508L17.8826 56.8491V59.6255C18.5797 59.8229 19.1819 60.2659 19.5779 60.8725C19.974 61.4792 20.1373 62.2086 20.0376 62.9263C19.938 63.6439 19.5821 64.3013 19.0357 64.777C18.4893 65.2528 17.7892 65.5149 17.0647 65.5149C16.3402 65.5149 15.6401 65.2528 15.0937 64.777C14.5473 64.3013 14.1914 63.6439 14.0918 62.9263C13.9921 62.2086 14.1554 61.4792 14.5515 60.8725C14.9475 60.2659 15.5497 59.8229 16.2468 59.6255V56.4117C16.2468 56.2772 16.2799 56.1449 16.3433 56.0263C16.4066 55.9077 16.4982 55.8066 16.61 55.7318L20.4624 53.1588C19.4399 51.2312 19.0216 49.0403 19.2618 46.8715H16.9792C16.7817 47.5686 16.3388 48.1707 15.7321 48.5668C15.1255 48.9629 14.396 49.1262 13.6784 49.0265C12.9608 48.9269 12.3034 48.571 11.8276 48.0246C11.3519 47.4782 11.0898 46.7781 11.0898 46.0536C11.0898 45.3291 11.3519 44.629 11.8276 44.0826C12.3034 43.5362 12.9608 43.1803 13.6784 43.0806C14.396 42.981 15.1255 43.1443 15.7321 43.5403C16.3388 43.9364 16.7817 44.5386 16.9792 45.2357H19.2108C19.1607 45.0956 19.1155 44.9525 19.0749 44.8065C18.7901 43.7785 18.7822 42.6935 19.0521 41.6615C19.322 40.6295 19.86 39.6872 20.6117 38.9303C20.0613 37.7082 19.8511 36.3601 20.0031 35.0284H16.0262C15.8288 35.7256 15.386 36.3278 14.7793 36.724C14.1727 37.1201 13.4432 37.2835 12.7255 37.1839C12.0078 37.0842 11.3504 36.7284 10.8746 36.1819C10.3988 35.6355 10.1367 34.9354 10.1367 34.2109C10.1367 33.4863 10.3988 32.7862 10.8746 32.2398C11.3504 31.6934 12.0078 31.3375 12.7255 31.2379C13.4432 31.1383 14.1727 31.3016 14.7793 31.6978C15.386 32.094 15.8288 32.6962 16.0262 33.3934H20.3783C20.8675 32.0245 21.7242 30.8167 22.8545 29.9026C22.4561 28.6316 22.4223 27.2742 22.757 25.985L14.2448 20.2994C14.1333 20.2245 14.042 20.1233 13.9789 20.0048C13.9158 19.8862 13.8829 19.7539 13.8831 19.6196V16.405C13.186 16.2076 12.5839 15.7646 12.1878 15.158C11.7917 14.5513 11.6284 13.8219 11.7281 13.1042C11.8278 12.3866 12.1836 11.7292 12.73 11.2535C13.2765 10.7777 13.9765 10.5156 14.701 10.5156C15.4256 10.5156 16.1256 10.7777 16.672 11.2535C17.2184 11.7292 17.5743 12.3866 17.674 13.1042C17.7736 13.8219 17.6104 14.5513 17.2143 15.158C16.8182 15.7646 16.216 16.2076 15.5189 16.405V19.1814L23.364 24.4212C23.723 23.7408 24.1812 23.1177 24.7237 22.5723C25.6202 21.6674 26.7208 20.9908 27.933 20.5996C27.6411 19.7224 27.5792 18.785 27.7531 17.877C27.9271 16.9691 28.3311 16.1209 28.9265 15.4138C29.5758 14.6445 30.4005 14.0426 31.3311 13.6588C32.2617 13.275 33.2709 13.1205 34.2737 13.2084C34.7981 12.5112 35.4556 11.9248 36.208 11.4832C36.9604 11.0416 37.7929 10.7534 38.6573 10.6354C39.8442 10.4454 41.0603 10.5762 42.1796 11.0142C43.2989 11.4522 44.2808 12.1815 45.0234 13.1266C45.7664 12.1813 46.7487 11.4519 47.8684 11.014C48.9882 10.5761 50.2047 10.4456 51.3918 10.6362C52.2562 10.7542 53.0887 11.0423 53.8411 11.484C54.5936 11.9256 55.251 12.512 55.7755 13.2092C56.7782 13.1213 57.7875 13.2758 58.718 13.6596C59.6486 14.0434 60.4733 14.6453 61.1226 15.4145C61.718 16.1217 62.1221 16.9698 62.296 17.8778C62.47 18.7857 62.408 19.7231 62.1161 20.6003C63.3285 20.9916 64.4291 21.6684 65.3254 22.5738C65.8681 23.1187 66.3263 23.7417 66.6851 24.4219L74.5302 19.1814V16.405C73.8331 16.2076 73.2309 15.7646 72.8348 15.158C72.4388 14.5513 72.2755 13.8219 72.3751 13.1042C72.4748 12.3866 72.8307 11.7292 73.3771 11.2535C73.9235 10.7777 74.6236 10.5156 75.3481 10.5156C76.0726 10.5156 76.7727 10.7777 77.3191 11.2535C77.8655 11.7292 78.2214 12.3866 78.321 13.1042C78.4207 13.8219 78.2574 14.5513 77.8613 15.158C77.4652 15.7646 76.8631 16.2076 76.166 16.405V19.6181C76.166 19.7526 76.1327 19.885 76.0693 20.0036C76.0058 20.1222 75.914 20.2233 75.8021 20.2979L67.2899 25.985C67.6246 27.2742 67.5908 28.6316 67.1923 29.9026C68.3226 30.8167 69.1794 32.0245 69.6685 33.3934H74.0207C74.218 32.6962 74.6609 32.094 75.2676 31.6978C75.8742 31.3016 76.6037 31.1383 77.3214 31.2379C78.039 31.3375 78.6964 31.6934 79.1722 32.2398C79.6481 32.7862 79.9102 33.4863 79.9102 34.2109C79.9102 34.9354 79.6481 35.6355 79.1722 36.1819C78.6964 36.7284 78.039 37.0842 77.3214 37.1839C76.6037 37.2835 75.8742 37.1201 75.2676 36.724C74.6609 36.3278 74.218 35.7256 74.0207 35.0284H74.0252ZM75.5469 34.2105C75.5468 34.4813 75.627 34.7461 75.7773 34.9713C75.9277 35.1965 76.1415 35.372 76.3917 35.4757C76.6418 35.5793 76.9171 35.6065 77.1827 35.5536C77.4483 35.5008 77.6922 35.3703 77.8837 35.1788C78.0751 34.9873 78.2054 34.7432 78.2581 34.4776C78.3108 34.212 78.2835 33.9367 78.1797 33.6866C78.0759 33.4365 77.9003 33.2228 77.675 33.0726C77.4497 32.9223 77.1849 32.8423 76.9141 32.8426C76.551 32.8424 76.2026 32.9863 75.9456 33.2428C75.6885 33.4993 75.5438 33.8474 75.5432 34.2105H75.5469ZM75.3518 14.8847C75.6225 14.8847 75.8872 14.8045 76.1122 14.6541C76.3373 14.5037 76.5127 14.2899 76.6163 14.0398C76.7199 13.7897 76.747 13.5146 76.6942 13.2491C76.6414 12.9836 76.511 12.7397 76.3196 12.5483C76.1282 12.3569 75.8843 12.2265 75.6189 12.1737C75.3534 12.1209 75.0782 12.148 74.8281 12.2516C74.578 12.3552 74.3642 12.5306 74.2138 12.7557C74.0634 12.9808 73.9832 13.2454 73.9832 13.5161C73.9836 13.8783 74.1274 14.2256 74.3832 14.4821C74.6389 14.7386 74.9859 14.8834 75.3481 14.8847H75.3518ZM14.7025 14.8847C14.9731 14.884 15.2373 14.8031 15.4619 14.6523C15.6865 14.5014 15.8613 14.2874 15.9643 14.0372C16.0674 13.7871 16.0939 13.512 16.0407 13.2468C15.9875 12.9815 15.8568 12.738 15.6653 12.547C15.4737 12.3559 15.2298 12.2259 14.9644 12.1734C14.699 12.1209 14.424 12.1482 14.1742 12.2519C13.9243 12.3556 13.7107 12.5311 13.5605 12.7561C13.4103 12.9811 13.3301 13.2455 13.3301 13.5161C13.3305 13.8789 13.4748 14.2268 13.7314 14.4834C13.988 14.74 14.3359 14.8843 14.6988 14.8847H14.7025ZM14.5074 34.2105C14.5074 33.9401 14.4273 33.6757 14.2772 33.4507C14.1271 33.2258 13.9137 33.0504 13.6639 32.9466C13.4142 32.8428 13.1393 32.8154 12.874 32.8677C12.6086 32.92 12.3647 33.0498 12.1731 33.2406C11.9814 33.4314 11.8506 33.6747 11.7971 33.9398C11.7436 34.2049 11.7699 34.4799 11.8726 34.7301C11.9752 34.9803 12.1497 35.1945 12.374 35.3456C12.5983 35.4967 12.8623 35.578 13.1328 35.5792C13.496 35.5794 13.8445 35.4353 14.1016 35.1787C14.3587 34.922 14.5033 34.5738 14.5037 34.2105H14.5074ZM15.4589 46.0536C15.4589 45.7829 15.3786 45.5183 15.2282 45.2932C15.0779 45.0681 14.8641 44.8927 14.614 44.7891C14.3639 44.6855 14.0887 44.6584 13.8232 44.7112C13.5577 44.764 13.3138 44.8944 13.1224 45.0858C12.931 45.2772 12.8007 45.5211 12.7479 45.7866C12.6951 46.0521 12.7222 46.3273 12.8257 46.5774C12.9293 46.8274 13.1048 47.0412 13.3298 47.1916C13.5549 47.342 13.8195 47.4223 14.0902 47.4223C14.4531 47.4219 14.801 47.2775 15.0576 47.0209C15.3142 46.7644 15.4585 46.4165 15.4589 46.0536ZM17.0639 61.1465C16.7932 61.1465 16.5286 61.2268 16.3036 61.3772C16.0785 61.5276 15.903 61.7413 15.7995 61.9914C15.6959 62.2415 15.6688 62.5167 15.7216 62.7822C15.7744 63.0477 15.9047 63.2916 16.0961 63.483C16.2876 63.6744 16.5314 63.8047 16.7969 63.8576C17.0624 63.9104 17.3376 63.8833 17.5877 63.7797C17.8378 63.6761 18.0516 63.5007 18.202 63.2756C18.3523 63.0505 18.4326 62.7859 18.4326 62.5152C18.4322 62.1521 18.2877 61.8039 18.0308 61.5473C17.7739 61.2907 17.4256 61.1465 17.0624 61.1465H17.0639ZM72.9859 61.1465C72.7152 61.1465 72.4506 61.2268 72.2255 61.3772C72.0005 61.5276 71.825 61.7413 71.7214 61.9914C71.6178 62.2415 71.5907 62.5167 71.6436 62.7822C71.6964 63.0477 71.8267 63.2916 72.0181 63.483C72.2095 63.6744 72.4534 63.8047 72.7189 63.8576C72.9844 63.9104 73.2596 63.8833 73.5097 63.7797C73.7598 63.6761 73.9735 63.5007 74.1239 63.2756C74.2743 63.0505 74.3546 62.7859 74.3546 62.5152C74.3542 62.1521 74.2097 61.8039 73.9528 61.5473C73.6958 61.2907 73.3476 61.1465 72.9844 61.1465H72.9859ZM74.588 46.0536C74.588 46.3243 74.6682 46.5889 74.8186 46.814C74.969 47.0391 75.1828 47.2145 75.4329 47.3181C75.683 47.4217 75.9582 47.4488 76.2236 47.396C76.4891 47.3432 76.733 47.2128 76.9244 47.0214C77.1158 46.83 77.2462 46.5861 77.299 46.3206C77.3518 46.0551 77.3247 45.7799 77.2211 45.5298C77.1175 45.2797 76.9421 45.066 76.717 44.9156C76.492 44.7652 76.2273 44.6849 75.9566 44.6849C75.5938 44.6853 75.2459 44.8296 74.9893 45.0862C74.7327 45.3428 74.5884 45.6907 74.588 46.0536ZM44.2055 53.6233V14.9178C43.7136 13.9707 42.935 13.2033 41.9809 12.7251C41.0269 12.2468 39.9461 12.0822 38.8929 12.2547C38.1757 12.3476 37.4879 12.5975 36.8783 12.9866C36.2687 13.3757 35.7524 13.8944 35.3662 14.5058C35.2815 14.6436 35.1579 14.7533 35.0111 14.8211C34.8642 14.8889 34.7006 14.9118 34.5408 14.887C33.7418 14.7472 32.9202 14.8181 32.157 15.0928C31.3938 15.3674 30.7154 15.8362 30.1886 16.453C29.6892 17.04 29.3824 17.7664 29.3098 18.5336C29.2372 19.3009 29.4023 20.0719 29.7827 20.7421C29.8477 20.8551 29.8848 20.9819 29.8908 21.1121C29.8968 21.2423 29.8715 21.372 29.8172 21.4905C29.7629 21.609 29.681 21.7127 29.5784 21.7931C29.4758 21.8734 29.3554 21.9281 29.2274 21.9525C27.9592 22.1908 26.7932 22.8086 25.8838 23.7241C24.9615 24.6182 24.3728 25.801 24.2156 27.0759C24.0583 28.3508 24.3419 29.6411 25.0194 30.7325C25.1261 30.917 25.1566 31.1358 25.1044 31.3424C25.0522 31.549 24.9215 31.727 24.74 31.8387C24.5585 31.9504 24.3406 31.9868 24.1327 31.9402C23.9248 31.8937 23.7432 31.7678 23.6267 31.5895C23.6012 31.5482 23.5786 31.5077 23.5516 31.4664C22.8816 32.0782 22.3589 32.8339 22.023 33.6767C21.687 34.5196 21.5465 35.4276 21.6119 36.3326C21.7907 37.8506 22.4892 39.2601 23.5891 40.3216C24.6889 41.3831 26.1222 42.0313 27.6456 42.1562C27.8568 42.186 28.048 42.2971 28.1784 42.4659C28.3088 42.6346 28.3681 42.8476 28.3438 43.0595C28.3194 43.2713 28.2133 43.4653 28.0479 43.6C27.8826 43.7348 27.6712 43.7996 27.4588 43.7807C26.286 43.6546 25.1512 43.2904 24.1239 42.7106C23.0966 42.1308 22.1985 41.3475 21.4844 40.4086C20.9909 41.0152 20.6675 41.7422 20.5473 42.515C20.4271 43.2877 20.5144 44.0786 20.8003 44.8065C21.0862 45.5344 21.5604 46.1733 22.1744 46.6577C22.7883 47.1421 23.52 47.4546 24.2945 47.5633C24.4991 47.5926 24.685 47.6982 24.8148 47.859C24.9447 48.0197 25.0089 48.2236 24.9945 48.4298C24.9802 48.6359 24.8883 48.829 24.7375 48.9702C24.5866 49.1114 24.3878 49.1902 24.1812 49.1909C24.1428 49.1907 24.1044 49.1879 24.0664 49.1826C22.8683 49.0157 21.7479 48.4929 20.8503 47.6819C20.7297 49.7599 21.3634 51.8116 22.6347 53.4597C23.226 54.1594 23.9763 54.7071 24.8228 55.0572C25.6693 55.4072 26.5874 55.5492 27.5001 55.4715C27.6508 55.4639 27.8006 55.4982 27.9331 55.5705C28.0655 55.6428 28.1753 55.7503 28.2504 55.8812C29.1137 57.3849 30.4075 58.5955 31.9651 59.3571C33.5228 60.1187 35.2728 60.3963 36.9896 60.154C38.7065 59.9118 40.3114 59.1609 41.5976 57.9981C42.8837 56.8353 43.792 55.3139 44.2055 53.6301V53.6233ZM68.5633 40.4086C67.8491 41.3475 66.951 42.1308 65.9237 42.7106C64.8964 43.2904 63.7617 43.6546 62.5888 43.7807C62.4807 43.796 62.3706 43.7895 62.2651 43.7615C62.1595 43.7336 62.0606 43.6848 61.9742 43.618C61.8879 43.5512 61.8157 43.4678 61.762 43.3728C61.7084 43.2777 61.6743 43.1728 61.6619 43.0643C61.6494 42.9558 61.6587 42.846 61.6894 42.7412C61.7201 42.6364 61.7714 42.5388 61.8404 42.4541C61.9094 42.3695 61.9946 42.2995 62.091 42.2484C62.1875 42.1972 62.2932 42.1658 62.402 42.1562C63.9253 42.0312 65.3584 41.3829 66.4581 40.3214C67.5578 39.2598 68.2562 37.8505 68.4349 36.3326C68.5 35.4275 68.3591 34.5195 68.0227 33.6768C67.6863 32.8341 67.1633 32.0786 66.493 31.4672C66.469 31.5084 66.4465 31.5489 66.4179 31.5902C66.367 31.6913 66.2956 31.7807 66.2084 31.8528C66.1211 31.9248 66.0198 31.978 65.9109 32.0089C65.802 32.0398 65.6879 32.0478 65.5758 32.0323C65.4636 32.0168 65.3559 31.9782 65.2595 31.919C65.163 31.8598 65.0799 31.7811 65.0154 31.6881C64.9509 31.5951 64.9065 31.4897 64.8848 31.3786C64.8631 31.2675 64.8648 31.1531 64.8896 31.0427C64.9144 30.9323 64.9619 30.8282 65.029 30.737C65.7064 29.6456 65.9901 28.3553 65.8328 27.0804C65.6756 25.8055 65.0869 24.6227 64.1646 23.7286C63.2552 22.8131 62.0892 22.1953 60.8209 21.957C60.6929 21.9326 60.5726 21.8779 60.47 21.7976C60.3674 21.7172 60.2855 21.6135 60.2312 21.495C60.1768 21.3765 60.1516 21.2468 60.1576 21.1166C60.1636 20.9864 60.2007 20.8596 60.2657 20.7466C60.6461 20.0764 60.8112 19.3054 60.7386 18.5381C60.6659 17.7709 60.3591 17.0445 59.8597 16.4575C59.333 15.8408 58.6545 15.372 57.8913 15.0974C57.1281 14.8227 56.3066 14.7518 55.5076 14.8915C55.3478 14.9163 55.1841 14.8934 55.0373 14.8256C54.8904 14.7578 54.7669 14.6481 54.6822 14.5103C54.296 13.8989 53.7797 13.3802 53.1701 12.9911C52.5605 12.602 51.8726 12.3521 51.1554 12.2592C50.1023 12.0868 49.0216 12.2515 48.0675 12.7297C47.1135 13.2079 46.3349 13.9753 45.8428 14.9223V53.6233C46.256 55.3074 47.1642 56.8291 48.4503 57.9921C49.7365 59.1552 51.3415 59.9063 53.0585 60.1485C54.7756 60.3908 56.5258 60.1131 58.0835 59.3513C59.6412 58.5895 60.935 57.3784 61.7979 55.8744C61.8731 55.7436 61.983 55.6361 62.1154 55.5638C62.2478 55.4915 62.3976 55.4572 62.5483 55.4647C63.461 55.5428 64.3792 55.4009 65.2258 55.0508C66.0723 54.7008 66.8226 54.1529 67.4137 53.453C68.685 51.8048 69.3186 49.7531 69.1981 47.6751C68.3005 48.4862 67.1801 49.009 65.982 49.1759C65.9439 49.1812 65.9056 49.1839 65.8672 49.1841C65.6605 49.1835 65.4618 49.1046 65.3109 48.9634C65.16 48.8222 65.0682 48.6292 65.0538 48.423C65.0395 48.2169 65.1037 48.0129 65.2336 47.8522C65.3634 47.6915 65.5493 47.5858 65.7539 47.5566C66.5283 47.4479 67.26 47.1353 67.874 46.6509C68.488 46.1665 68.9622 45.5277 69.2481 44.7997C69.534 44.0718 69.6213 43.281 69.5011 42.5082C69.3809 41.7354 69.0575 41.0085 68.564 40.4018L68.5633 40.4086Z" fill="url(#paint0_linear_184_758)"></path><defs><linearGradient id="paint0_linear_184_758" x1="10.1367" y1="65.5156" x2="63.6159" y2="-2.32854" gradientUnits="userSpaceOnUse"><stop stop-color="#FFAA00"></stop><stop offset="0.16" stop-color="#FFA100"></stop><stop offset="0.42" stop-color="#FF8700"></stop><stop offset="0.75" stop-color="#FF5E00"></stop><stop offset="0.99" stop-color="#FF3C00"></stop></linearGradient></defs></svg>